HIERARCHY
ROOT hip
{
	OFFSET 0.000000 0.000000 0.000000 
	CHANNELS 6 Xposition Yposition Zposition Xrotation Zrotation Yrotation
	JOINT abdomen
	{
		OFFSET 0.000000 3.402643 0.000000 
		CHANNELS 3 Xrotation Zrotation Yrotation
		JOINT chest
		{
			OFFSET 0.000000 8.438565 -0.680529 
			CHANNELS 3 Xrotation Zrotation Yrotation
			JOINT neck
			{
				OFFSET 0.000000 10.207942 -0.272212 
				CHANNELS 3 Xrotation Zrotation Yrotation
				JOINT head
				{
					OFFSET 0.000000 3.130431 0.000000 
					CHANNELS 3 Xrotation Zrotation Yrotation
					End Site
					{
						OFFSET 0.000000 3.130435 0.000000 
					}
				}
			}
			JOINT lCollar
			{
				OFFSET 3.470700 6.669187 -0.816635 
				CHANNELS 3 Yrotation Zrotation Xrotation
				JOINT lShldr
				{
					OFFSET 3.198488 0.000000 0.000000 
					CHANNELS 3 Zrotation Yrotation Xrotation
					JOINT lForeArm
					{
						OFFSET 10.139888 0.000000 0.000000 
						CHANNELS 3 Yrotation Zrotation Xrotation
						JOINT lHand
						{
							OFFSET 8.370511 0.000000 0.000000 
							CHANNELS 3 Zrotation Yrotation Xrotation
							End Site
							{
								OFFSET 4.083176 0.000000 0.000000 
							}
						}
					}
				}
			}
			JOINT rCollar
			{
				OFFSET -3.470700 6.669187 -0.816635 
				CHANNELS 3 Yrotation Zrotation Xrotation
				JOINT rShldr
				{
					OFFSET -3.198488 0.000000 0.000000 
					CHANNELS 3 Zrotation Yrotation Xrotation
					JOINT rForeArm
					{
						OFFSET -10.139888 0.000000 0.000000 
						CHANNELS 3 Yrotation Zrotation Xrotation
						JOINT rHand
						{
							OFFSET -8.370511 0.000000 0.000000 
							CHANNELS 3 Zrotation Yrotation Xrotation
							End Site
							{
								OFFSET -4.083176 0.000000 0.000000 
							}
						}
					}
				}
			}
		}
	}
	JOINT lThigh
	{
		OFFSET 5.308129 -1.633274 1.361059 
		CHANNELS 3 Xrotation Zrotation Yrotation
		JOINT lShin
		{
			OFFSET -2.041588 -20.007561 0.000000 
			CHANNELS 3 Xrotation Zrotation Yrotation
			JOINT lFoot
			{
				OFFSET 0.000000 -19.190928 -1.224953 
				CHANNELS 3 Xrotation Yrotation Zrotation
				End Site
				{
					OFFSET 0.000000 -2.449906 4.627600 
				}
			}
		}
	}
	JOINT rThigh
	{
		OFFSET -5.308129 -1.633274 1.361059 
		CHANNELS 3 Xrotation Zrotation Yrotation
		JOINT rShin
		{
			OFFSET 2.041588 -20.007561 0.000000 
			CHANNELS 3 Xrotation Zrotation Yrotation
			JOINT rFoot
			{
				OFFSET 0.000000 -19.190928 -1.224953 
				CHANNELS 3 Xrotation Yrotation Zrotation
				End Site
				{
					OFFSET 0.000000 -2.449906 4.627600 
				}
			}
		}
	}
}
MOTION
Frames: 8
Frame Time: 0.033333
0.377503 40.761295 2.556085 7.586921 -3.749954 -0.283874 0.000000 0.000000 0.000000 8.761089 5.444750 -14.587955 26.356771 0.841342 11.759107 -23.739784 -8.551039 5.756190 1.992188 -2.001953 0.000341 -68.238388 -13.377410 4.329076 -64.662086 1.460742 20.353655 21.474365 -51.247604 18.709566 -2.001953 1.992188 0.000000 55.864723 -8.570038 21.026161 91.998726 -1.607336 21.265429 -21.503235 51.237778 18.720692 -16.850143 7.535447 9.153820 23.751360 -1.475242 -2.208301 -12.136828 -8.768781 0.062846 -12.756996 -5.709023 -6.878966 56.080055 -0.117154 3.790163 5.432829 2.142292 5.364678 
0.290456 40.761295 2.469039 7.586921 -3.749954 -0.283874 0.000000 0.000000 0.000000 8.761089 5.444750 -14.587955 26.356771 0.841342 11.759107 -23.739784 -8.551039 5.756190 1.992188 -2.001953 0.000341 -68.238388 -13.377410 4.329076 -64.662086 1.460742 20.353655 21.474365 -51.247604 18.709566 -2.001953 1.992188 0.000000 55.864723 -8.570038 21.026161 91.998726 -1.607336 21.265429 -21.503235 51.237778 18.720692 -16.976257 7.661836 9.133729 23.761139 -1.475253 -2.208817 -12.023395 -8.772752 -0.061601 -12.756996 -5.709021 -6.878966 56.080055 -0.117153 3.790163 5.432830 2.142292 5.364678 
0.203412 40.761295 2.381994 7.586921 -3.749954 -0.283874 0.000000 0.000000 0.000000 8.761089 5.444750 -14.587955 26.356771 0.841342 11.759107 -23.739784 -8.551039 5.756190 1.992188 -2.001953 0.000341 -68.238388 -13.377410 4.329076 -64.662086 1.460742 20.353655 21.474365 -51.247604 18.709566 -2.001953 1.992188 0.000000 55.864723 -8.570038 21.026161 91.998726 -1.607336 21.265429 -21.503235 51.237778 18.720692 -17.112223 7.768720 9.105221 23.780340 -1.475266 -2.219567 -11.918344 -8.776658 -0.196208 -12.756996 -5.709022 -6.878966 56.080055 -0.117151 3.790164 5.432829 2.142292 5.364678 
0.203412 40.751595 2.381994 6.330876 -3.994012 -0.460590 0.000000 0.000000 0.000000 8.354993 5.791329 -14.715019 26.240017 0.524218 12.578662 -22.796324 -8.738851 4.831102 1.992188 -2.001953 0.000341 -67.011101 -14.654119 5.337444 -66.921486 1.480817 20.423273 21.474365 -51.247604 18.709566 -2.001953 1.992188 0.000000 56.607498 -10.778118 21.900764 93.984200 -1.603341 21.330362 -20.810364 43.148804 19.058104 -16.287201 8.016377 8.835102 24.740005 -1.440534 -2.272872 -12.447337 -8.303432 -0.149506 -18.772263 -5.339090 -7.345720 54.753628 -0.038987 3.758035 1.199325 -0.525180 5.299925 
0.203412 40.741898 2.381994 5.076554 -4.257551 -0.636639 0.000000 0.000000 0.000000 7.937581 6.137491 -14.842674 26.114271 0.208988 13.408326 -21.842527 -8.905602 3.883774 1.992188 -2.001953 0.000341 -65.798256 -15.952796 6.321209 -69.188820 1.508880 20.489168 21.474365 -51.247604 18.709566 -2.001953 1.992188 0.000000 57.315266 -12.997379 22.745934 95.969467 -1.587078 21.392384 -20.240257 35.060558 19.253580 -15.444521 8.258151 8.567434 25.698915 -1.407177 -2.335729 -12.991667 -7.846807 -0.086621 -24.798159 -5.017646 -7.853266 53.437202 0.019447 3.705684 -3.055008 -3.167128 5.023479 
0.215847 40.480824 2.394430 3.623714 -4.540492 -0.872597 0.000000 0.000000 0.000000 7.450487 6.500916 -15.010800 25.957302 -0.151358 14.375025 -20.736227 -9.041966 2.817653 1.992188 -2.001953 0.000341 -64.413345 -17.394293 7.544442 -71.901321 1.536595 20.580210 21.474365 -51.247604 18.709566 -2.001953 1.992188 0.000000 58.286671 -15.461069 23.618460 97.211258 -1.593152 21.438360 -19.628008 25.824732 19.220581 -14.608818 8.612942 8.121470 29.034369 -1.285188 -2.530963 -15.721395 -7.101188 -0.132459 -17.025953 -3.523657 -7.720800 38.267673 0.849611 3.024202 -8.988988 -5.191798 4.592662 
0.228282 40.219757 2.406864 2.153227 -4.842865 -1.098089 0.000000 0.000000 0.000000 6.947715 6.872839 -15.189233 25.795389 -0.517969 15.342393 -19.634451 -9.165713 1.749995 1.992188 -2.001953 0.000341 -63.044182 -18.873693 8.744913 -74.619781 1.562225 20.669867 21.474365 -51.247604 18.709566 -2.001953 1.992188 0.000000 59.231651 -17.934654 24.461893 98.447647 -1.580247 21.473265 -19.043646 16.585390 19.093361 -13.749175 8.964260 7.699319 32.376053 -1.159151 -2.749314 -18.450588 -6.347464 -0.105203 -9.253073 -2.058994 -7.385643 23.098953 1.464507 2.113597 -14.936495 -7.136642 3.960796 
0.228282 39.949059 2.406864 1.150163 -4.920040 -1.568467 0.000000 0.000000 0.000000 6.521005 6.973864 -15.557139 25.688505 -0.825408 16.163763 -19.290487 -9.157097 1.493111 1.992188 -2.001953 0.000341 -61.664108 -20.432785 9.506978 -77.334518 1.568490 20.765478 21.474365 -51.247604 18.709566 -2.001953 1.992188 0.000000 60.413776 -19.283060 24.899502 93.906555 -1.608485 21.322695 -18.186026 9.734844 18.329445 -22.359808 11.052582 6.959112 48.209175 -0.371959 -3.548229 -16.596973 -5.635817 0.193432 -12.634697 -2.118853 -7.570845 25.075417 1.415755 2.236737 -12.504928 -6.576281 3.544809 
